<svg width="46" height="44" viewBox="0 0 46 44" fill="none" xmlns="http://www.w3.org/2000/svg">
<path d="M19.208 32.1612C13.3524 31.4514 9.2269 27.2372 9.2269 21.7809C9.2269 19.5629 10.0254 17.1674 11.3562 15.5704C10.7796 14.1066 10.8683 11.0013 11.5337 9.7149C13.308 9.4931 15.7035 10.4246 17.123 11.7111C18.8087 11.1788 20.5831 10.9126 22.7568 10.9126C24.9305 10.9126 26.7049 11.1788 28.3018 11.6667C29.677 10.4246 32.1168 9.4931 33.8912 9.7149C34.5122 10.9126 34.601 14.0178 34.0243 15.5261C35.4438 17.2118 36.1979 19.4741 36.1979 21.7809C36.1979 27.2372 32.0725 31.3627 26.1282 32.1168C27.6364 33.0927 28.6567 35.222 28.6567 37.6618V42.2753C28.6567 43.6061 29.7657 44.3602 31.0965 43.8279C39.1257 40.7671 45.4249 32.7378 45.4249 22.8011C45.4249 10.2472 35.222 1.10614e-07 22.6681 0C10.1141 -1.10614e-07 1.10614e-07 10.2472 0 22.8011C-8.67712e-08 32.6491 6.25477 40.8114 14.6832 43.8723C15.881 44.3158 17.0343 43.5174 17.0343 42.3197V38.7708C16.4133 39.037 15.6148 39.2145 14.905 39.2145C11.9772 39.2145 10.2472 37.6175 9.00511 34.6453C8.51716 33.4476 7.98486 32.7378 6.96456 32.6048C6.43225 32.5604 6.25477 32.3386 6.25477 32.0725C6.25477 31.5401 7.14199 31.1409 8.02922 31.1409C9.31567 31.1409 10.4246 31.9394 11.578 33.5807C12.4652 34.8672 13.3968 35.4438 14.5058 35.4438C15.6148 35.4438 16.3245 35.0446 17.3448 34.0243C18.099 33.2701 18.6756 32.6048 19.208 32.1612Z" fill="white"/>
</svg>
