<svg width="75" height="75" viewBox="0 0 75 75" fill="none" xmlns="http://www.w3.org/2000/svg">
<rect width="75" height="75" fill="white"/>
<path d="M65.3918 17.8367L63.3775 49.4415L44.1185 8L65.3918 17.8367ZM52.0523 58.7034L37.5001 67L22.9476 58.7034L23.7702 53.8679H51.2307L52.0523 58.7034ZM11.6019 49.4415L9.60815 17.8367L30.8815 8L11.6019 49.4415Z" fill="url(#paint0_radial_78_59)"/>
<path fill-rule="evenodd" clip-rule="evenodd" d="M51.1624 33.9345L51.1605 33.9486C50.3088 38.9112 47.0151 42.0485 41.2794 43.3605C42.6979 44.3547 44.3543 44.624 46.2721 44.1735C42.691 45.5012 39.5318 45.5504 36.7858 44.3326C37.2688 46.0427 38.4018 47.2761 40.2018 48.0517C35.7402 47.0937 32.8145 44.0043 31.431 38.786C30.7247 39.7181 30.7782 41.2724 31.5883 43.4746C29.1725 40.5501 28.722 37.4757 30.2463 34.259C31.8441 30.7235 34.7463 29.3069 38.9545 30.0099C44.6671 36.2777 48.35 38.1079 49.9864 35.4934C50.7024 33.2573 49.9663 30.5064 47.7735 27.2507C46.1989 25.0266 44.3444 23.4666 42.2258 22.5957C41.792 21.3645 41.0204 20.5023 39.9375 20.0511C39.1831 19.6993 38.4857 19.6306 37.8749 19.8792C37.7757 19.92 37.6768 19.9617 37.5783 20.0042C36.606 20.4205 34.9907 21.1121 33.192 20.4291C31.8611 19.9237 30.9269 20.2477 30.3895 21.4011C29.8601 22.5838 29.5055 23.226 29.3256 23.3277C29.0519 23.541 28.4697 23.7634 27.5841 23.9918C26.6986 24.2202 26.1432 24.5726 25.9179 25.049C25.5022 26.0587 25.3517 26.8735 25.4661 27.4934C25.2667 28.2625 24.9458 28.7818 24.5042 29.0394C24.4073 29.0956 24.3097 29.1505 24.2114 29.2043C23.7487 29.4595 23.5171 29.5872 23.4011 30.1322L23.3917 30.1765C23.2604 30.7903 23.2169 30.9934 23.8486 33.0401C23.4362 36.0756 23.9369 38.9998 25.3501 41.8004C25.3484 41.797 27.3261 46.7367 32.7671 49.3116C38.5303 51.6946 43.6615 50.8498 48.1608 46.7774C45.4952 47.3148 43.5333 47.3518 42.2842 46.8963C47.0351 46.5497 50.1437 44.2332 51.6275 39.9497C49.6519 41.4752 48.122 42.3646 47.0483 42.6041C48.8877 41.432 50.1459 40.0805 50.8322 38.5597C51.5185 37.0389 51.6285 35.4972 51.1624 33.9345ZM43.9105 27.6331C43.4765 28.1935 42.8997 29.4978 44.0642 30.2315C45.2286 30.9653 44.7098 30.0468 44.3048 29.4958C43.8999 28.9449 43.9105 27.6331 43.9105 27.6331Z" fill="url(#paint1_radial_78_59)"/>
<defs>
<radialGradient id="paint0_radial_78_59" cx="0" cy="0" r="1" gradientUnits="userSpaceOnUse" gradientTransform="translate(37.5306 34.9727) rotate(90) scale(31.9961 30.2518)">
<stop stop-color="#4D424E"/>
<stop offset="1"/>
</radialGradient>
<radialGradient id="paint1_radial_78_59" cx="0" cy="0" r="1" gradientUnits="userSpaceOnUse" gradientTransform="translate(37.4684 37.0051) rotate(26.565) scale(22.1452 19.7619)">
<stop offset="0.271" stop-color="#473A45"/>
<stop offset="1"/>
</radialGradient>
</defs>
</svg>
