<svg width="75" height="75" viewBox="0 0 75 75" fill="none" xmlns="http://www.w3.org/2000/svg">
<rect width="75" height="75" fill="white"/>
<path d="M37.4678 42.7492L29.7684 54.836L17.0024 34.1463L16.9729 55.8058H8V19.1942H17.0736L29.9724 40.8807L29.9848 31.065L37.4678 42.7492ZM38.9453 28.6049C39.0043 28.4871 38.9453 19.3145 38.965 19.1942H29.9922C29.997 19.339 29.9798 28.4649 29.9848 28.6049H38.9453ZM52.7955 38.7546C51.7481 38.7345 50.7202 39.0391 49.8534 39.6265C48.9866 40.214 48.3234 41.0553 47.9551 42.0348C48.5652 41.1229 49.4684 40.4463 50.5157 40.1164C51.5628 39.7865 52.6914 39.8232 53.7149 40.2203C54.6884 40.6156 55.9692 41.2564 56.9845 40.9151C56.5081 40.2487 55.8798 39.7051 55.1513 39.3294C54.4229 38.9537 53.6153 38.7567 52.7955 38.7546ZM61.1291 41.3596C60.2074 41.0404 59.1625 40.6795 58.4029 39.6876C58.2554 39.4911 58.1177 39.2702 57.9702 39.037C57.6411 38.4309 57.196 37.8953 56.66 37.4607C55.9372 36.9304 54.9883 36.6702 53.7591 36.6702C52.5509 36.6704 51.37 37.0291 50.366 37.7004C49.362 38.3718 48.5803 39.3257 48.1197 40.4413C48.7036 39.6296 49.4906 38.9852 50.402 38.5726C51.3134 38.1599 52.3173 37.9935 53.3134 38.09C54.3094 38.1864 55.2626 38.5423 56.0776 39.1222C56.8928 39.7019 57.5411 40.4854 57.958 41.394C58.1655 41.7343 58.478 41.9982 58.8486 42.1461C59.2192 42.294 59.6279 42.3178 60.0131 42.214C61.2251 41.9561 61.1439 43.0979 62.9705 43.4857V43.1592C62.9631 42.0642 62.3657 41.8089 61.1267 41.3596H61.1291ZM66.1048 44.4678C66.3728 44.3051 66.5927 44.0744 66.7425 43.7993C66.8924 43.5242 66.9666 43.2145 66.9579 42.9014C66.9333 35.6415 61.0334 29.4299 53.7567 29.4299C51.5693 29.428 49.4159 29.9697 47.4903 31.0061C45.5648 32.0424 43.9275 33.5409 42.7262 35.3665C42.7016 35.3027 38.9847 29.4985 38.9453 29.4299H29.9848L38.4979 42.7442L30.1913 55.8058H38.8937L42.6795 49.9969L46.5341 55.8058H55.2391L47.3478 43.4023C47.2171 43.1606 47.1463 42.8912 47.1413 42.6166C47.1411 41.7491 47.3118 40.89 47.644 40.0884C47.9762 39.2869 48.4632 38.5585 49.0774 37.9449C49.6914 37.3314 50.4205 36.8448 51.223 36.5127C52.0255 36.1807 52.8856 36.0097 53.7542 36.0097H53.7567C57.4146 36.0097 58.0244 38.1949 58.8135 39.2211C60.372 41.249 63.4843 40.3603 63.4843 43.0046C63.4899 43.3078 63.5749 43.6043 63.7309 43.8646C63.8871 44.1248 64.1087 44.3396 64.3739 44.4877C64.6389 44.6357 64.9382 44.7118 65.242 44.7083C65.5457 44.7048 65.8431 44.6219 66.1048 44.4678ZM66.9653 44.7944C66.5399 45.7077 65.5886 45.6242 65.1092 46.3632C64.6765 47.0285 65.3895 47.3747 65.3895 47.3747C65.3895 47.3747 66.2179 47.7578 66.712 46.6112C66.9677 46.044 67.0562 45.4131 66.9653 44.7944Z" fill="black"/>
</svg>
