<svg width="75" height="75" viewBox="0 0 75 75" fill="none" xmlns="http://www.w3.org/2000/svg">
<rect width="75" height="75" fill="white"/>
<path d="M26.1959 13.7587C20.7288 16.1781 17.309 20.1098 15.378 22.9713C13.2843 26.0887 12.47 28.671 12.47 28.6943V28.7176V28.7408C11.8651 30.4624 11.3068 33.161 11.3068 33.1843C10.6554 36.4878 10.9578 39.5587 10.9578 39.6052C10.9811 39.8146 11.0044 40.024 11.0276 40.2101C11.0974 39.3958 11.1905 38.5583 11.3533 37.7208C11.3999 37.3951 12.2606 32.7655 15.5176 29.0898C15.8666 28.5547 19.6354 23.5994 26.5681 23.5994C28.057 23.5994 29.6158 23.8321 31.1745 24.2974H31.1977H31.221C31.314 24.3206 33.3613 25.0651 34.1058 25.4373C34.8037 25.7863 36.0367 26.3213 36.0599 26.3213H36.0832H36.1065C42.7833 29.5783 48.5528 30.6252 48.5994 30.6485C50.2511 30.9277 51.74 31.0672 53.0661 31.0672C55.7182 31.0672 57.6259 30.4856 58.6263 29.369C59.4405 28.4617 59.3475 27.4613 59.3475 27.4613V27.4148V27.3682C59.394 24.9488 57.4165 22.3432 55.7415 20.5983C53.8804 18.6441 51.9727 17.2948 51.9494 17.2948C46.9243 13.5725 41.5503 11.6881 35.9204 11.6881C30.1508 11.7114 26.2424 13.7354 26.1959 13.7587ZM44.4351 20.2959C45.133 20.2959 45.6913 20.8542 45.6913 21.5522C45.6913 22.2501 45.133 22.8084 44.4351 22.8084C43.7371 22.8084 43.1788 22.2501 43.1788 21.5522C43.1788 20.8542 43.7371 20.2959 44.4351 20.2959ZM28.1966 15.5267C28.3827 15.5267 28.4991 15.5733 28.5456 15.5733L36.4787 18.0393L36.1763 18.6674L32.3842 17.4809L28.3595 16.2247C28.3362 16.2247 28.3362 16.2247 28.313 16.2014C28.2897 16.2014 28.2432 16.1781 28.1966 16.1781C28.1501 16.1781 28.0803 16.1781 28.0338 16.2014C27.3126 16.3875 25.3351 17.0854 24.7535 18.1323C24.5907 18.4348 24.5674 18.7372 24.6605 19.0629C24.6605 19.0862 25.0792 20.389 26.1261 21.7383L31.3838 21.4824L34.8967 21.3195L34.5478 22.0407L25.8237 22.4595C24.5209 20.8775 24.0091 19.2955 24.0091 19.2955C23.1948 16.7365 27.8709 15.55 27.8709 15.55C27.964 15.55 28.1036 15.5267 28.1966 15.5267ZM55.788 54.2384C61.1388 51.912 63.4187 47.8873 63.4187 47.8873C68.4205 41.0709 66.7222 33.8822 66.7222 33.8822C63.535 40.815 60.627 42.7226 60.627 42.7226C68.467 30.7881 60.6735 23.5762 60.6735 23.5762C63.8607 30.3693 59.6266 38.6514 59.6266 38.6514C56.0672 46.1425 51.0189 48.8179 51.0189 48.8179C56.6488 49.8648 60.7898 46.0727 60.7898 46.0727C52.7171 54.7968 43.9698 54.378 43.9698 54.378C47.6455 58.4958 53.1592 58.1468 53.1592 58.1468C45.9473 59.8451 39.1774 57.4489 33.6172 52.8193C32.5703 51.9585 31.57 51.028 30.6394 50.0276C30.6394 50.0276 29.8019 49.1436 29.639 48.9109L29.6158 48.8877C29.4994 53.1915 33.9894 57.193 33.9894 57.193C28.3595 54.8666 25.7772 49.8182 25.7772 49.8182C25.7772 49.8182 21.9851 43.3508 24.7303 35.976C27.4522 28.6943 35.5714 27.0658 35.7808 27.0193C35.8273 27.0425 35.8506 27.0658 35.8971 27.0658C35.8506 27.0425 35.8273 27.0193 35.7808 26.996C35.7808 26.996 34.5245 26.4609 33.8033 26.112C33.0821 25.763 30.9883 24.9953 30.9883 24.9953C29.4064 24.53 27.9175 24.3206 26.5681 24.3206C19.7052 24.3206 16.0527 29.5085 16.0527 29.5085C12.819 33.1378 12.0513 37.8371 12.0513 37.8371C11.1439 42.3271 12.121 47.0498 12.121 47.0498C12.121 47.0498 12.2141 47.422 12.2374 47.5849C12.9818 49.3529 13.9357 51.0978 15.0523 52.7495C21.101 61.776 30.9186 64.8935 30.9186 64.8935C45.4587 69.8255 55.3925 62.567 55.3925 62.567C64.5354 56.2857 66.3733 49.0272 66.3733 49.0272C58.9752 54.7735 55.788 54.2384 55.788 54.2384ZM11.2137 44.7466C11.2137 44.7466 10.6321 42.9785 10.3297 40.2799C10.3297 40.3032 10.3297 40.3497 10.3297 40.3729C10.3297 40.3264 10.3297 40.2799 10.3064 40.2101C10.2832 40.024 10.2599 39.8146 10.2366 39.6285C10.2366 39.6285 9.91094 36.4646 10.6089 32.9982C10.6089 32.9982 10.6321 32.9051 10.6554 32.7655C10.7485 32.3235 10.8415 31.8582 10.9578 31.4162C10.9578 31.3929 10.9578 31.3697 10.9811 31.3464C11.1905 30.4391 11.4929 29.3457 11.7953 28.4617C11.7953 28.4617 15.0058 17.923 25.8702 13.1073C25.8702 13.1073 29.6158 11.1298 35.269 10.9902C35.269 10.9902 34.5012 10.2458 34.0127 9.92005C31.3606 8.15197 27.4056 7.57037 25.0094 10.0596C24.2882 10.8041 23.6834 11.6183 23.0087 12.3628C22.241 13.2003 21.3104 13.8982 20.2403 14.2937C19.3097 14.6427 18.3791 14.5729 17.4253 14.7358C16.4482 14.8986 15.4478 15.2476 14.6568 15.8757C13.7961 16.5736 13.4471 17.5042 13.354 18.5744C13.261 19.4119 13.2843 20.2726 13.2377 21.1102C13.1214 23.5762 12.3304 24.2741 10.5623 25.6467C9.81788 26.205 9.18975 26.9495 8.72446 27.7405C7.32861 30.2065 9.56198 32.7655 9.6783 35.2548C9.70156 35.7666 9.65503 36.2784 9.46892 36.767C9.28281 37.3021 8.91058 37.651 8.60814 38.0931C8.18939 38.6747 7.91022 39.3726 8.02654 40.0938C8.14286 40.815 8.51509 41.4896 8.86405 42.1178C9.53871 43.2345 10.3762 44.2348 11.2603 45.1886C11.3068 45.2352 11.3533 45.2817 11.3999 45.3515C11.3999 45.3282 11.3766 45.305 11.3766 45.2817C11.3999 45.3515 11.4231 45.4213 11.4464 45.4911C11.3766 45.2352 11.3068 45.0025 11.2137 44.7466ZM10.2134 36.3948C10.2134 36.4878 10.2134 36.5576 10.2134 36.6507V36.6739C10.2134 36.5576 10.2134 36.4646 10.2134 36.3948ZM10.6321 42.3504C10.6321 42.3969 10.6554 42.4435 10.6554 42.4667C10.6554 42.49 10.6554 42.5133 10.6787 42.5598C10.6554 42.49 10.6554 42.4202 10.6321 42.3504Z" fill="black"/>
</svg>
